<?xml version="1.0" encoding="UTF-8"?>
<svg version="1.1" xmlns="http://www.w3.org/2000/svg" width="64" height="64">
<path d="M0 0 C1.17175781 -0.00386719 1.17175781 -0.00386719 2.3671875 -0.0078125 C3.57761719 0.00378906 3.57761719 0.00378906 4.8125 0.015625 C5.61945312 0.00789063 6.42640625 0.00015625 7.2578125 -0.0078125 C8.03898437 -0.00523438 8.82015625 -0.00265625 9.625 0 C10.33269531 0.00225586 11.04039063 0.00451172 11.76953125 0.00683594 C13.8125 0.265625 13.8125 0.265625 17.8125 2.265625 C17.8125 8.205625 17.8125 14.145625 17.8125 20.265625 C15.1725 19.935625 12.5325 19.605625 9.8125 19.265625 C7.81140722 19.59233403 5.81133869 19.92539714 3.8125 20.265625 C1.47835471 19.93802566 -0.85502239 19.60489447 -3.1875 19.265625 C-4.8375 19.595625 -6.4875 19.925625 -8.1875 20.265625 C-8.1875 14.325625 -8.1875 8.385625 -8.1875 2.265625 C-4.64407221 0.49391111 -3.64045503 0.01160436 0 0 Z M-6.1875 3.265625 C-6.1875 7.885625 -6.1875 12.505625 -6.1875 17.265625 C-2.8875 17.265625 0.4125 17.265625 3.8125 17.265625 C3.8125 12.645625 3.8125 8.025625 3.8125 3.265625 C-1.23759595 2.32776418 -1.23759595 2.32776418 -6.1875 3.265625 Z M5.8125 3.265625 C5.8125 7.885625 5.8125 12.505625 5.8125 17.265625 C9.1125 17.265625 12.4125 17.265625 15.8125 17.265625 C15.8125 12.645625 15.8125 8.025625 15.8125 3.265625 C10.76240405 2.32776418 10.76240405 2.32776418 5.8125 3.265625 Z " fill="#006ECD" transform="translate(27.1875,21.734375)"/>
</svg>
