<?xml version="1.0" encoding="UTF-8"?>
<svg version="1.1" xmlns="http://www.w3.org/2000/svg" width="32" height="32">
<path d="M0 0 C3.0625 1.5625 3.0625 1.5625 5 4 C5.8125 7.75 5.8125 7.75 6 11 C6.99 11 7.98 11 9 11 C9 14.96 9 18.92 9 23 C8.01 23.33 7.02 23.66 6 24 C5.95875 24.763125 5.9175 25.52625 5.875 26.3125 C5 29 5 29 2.375 30.8125 C-1.30122494 32.10598655 -4.13171244 32.23209725 -8 32 C-8 30.35 -8 28.7 -8 27 C-0.57142857 26.85714286 -0.57142857 26.85714286 3 28 C3.33 26.68 3.66 25.36 4 24 C3.34 24 2.68 24 2 24 C1.97298592 21.89590361 1.95359777 19.79170822 1.9375 17.6875 C1.92589844 16.51574219 1.91429688 15.34398437 1.90234375 14.13671875 C2 11 2 11 3 8 C-0.31380367 4.09404238 -0.31380367 4.09404238 -5 2.375 C-8.92660732 3.19304319 -10.44578533 4.99504157 -13 8 C-12.67 8.99 -12.34 9.98 -12 11 C-11.93062938 13.22818441 -11.91542916 15.45834524 -11.9375 17.6875 C-11.94652344 18.86699219 -11.95554687 20.04648437 -11.96484375 21.26171875 C-11.97644531 22.16535156 -11.98804688 23.06898437 -12 24 C-13.99954746 24.04254356 -16.00041636 24.04080783 -18 24 C-19 23 -19 23 -19.09765625 20.27734375 C-19.08605469 19.17519531 -19.07445313 18.07304687 -19.0625 16.9375 C-19.05347656 15.83277344 -19.04445313 14.72804688 -19.03515625 13.58984375 C-19.02355469 12.73519531 -19.01195313 11.88054688 -19 11 C-18.01 11 -17.02 11 -16 11 C-15.9071875 9.39125 -15.9071875 9.39125 -15.8125 7.75 C-15 4 -15 4 -13.0625 1.5625 C-8.66967984 -0.67873478 -4.83640374 -0.77033032 0 0 Z M-17 13 C-17 15.97 -17 18.94 -17 22 C-16.34 22 -15.68 22 -15 22 C-15 19.03 -15 16.06 -15 13 C-15.66 13 -16.32 13 -17 13 Z M5 13 C5 15.97 5 18.94 5 22 C5.66 22 6.32 22 7 22 C7 19.03 7 16.06 7 13 C6.34 13 5.68 13 5 13 Z " fill="#006ECC" transform="translate(21,0)"/>
</svg>
