<?xml version="1.0" encoding="UTF-8"?>
<svg version="1.1" xmlns="http://www.w3.org/2000/svg" width="64" height="64">
<path d="M0 0 C0.66 0 1.32 0 2 0 C2.309375 1.134375 2.61875 2.26875 2.9375 3.4375 C3.62924531 6.78775099 3.62924531 6.78775099 5 8 C7.95817107 8.25005386 7.95817107 8.25005386 11 8 C13.5654594 5.4345406 13.54046087 3.52313332 14 0 C14.66 0 15.32 0 16 0 C16.3125 2.6875 16.3125 2.6875 16 6 C13.625 8.875 13.625 8.875 11 11 C10.34 11 9.68 11 9 11 C9 12.32 9 13.64 9 15 C10.32 15 11.64 15 13 15 C13 15.66 13 16.32 13 17 C9.7 17 6.4 17 3 17 C3 16.34 3 15.68 3 15 C4.32 15 5.64 15 7 15 C7 13.68 7 12.36 7 11 C6.21625 10.731875 5.4325 10.46375 4.625 10.1875 C2 9 2 9 0 6 C-0.125 2.8125 -0.125 2.8125 0 0 Z " fill="#006FCC" transform="translate(24,31)"/>
<path d="M0 0 C2.875 0.6875 2.875 0.6875 3.875 1.6875 C4.00057162 3.99743382 4.05075729 6.31168536 4.0625 8.625 C4.07667969 9.89214844 4.09085938 11.15929688 4.10546875 12.46484375 C3.875 15.6875 3.875 15.6875 1.875 17.6875 C-1.125 17.9375 -1.125 17.9375 -4.125 17.6875 C-6.99800543 14.81449457 -6.42521547 12.6840678 -6.4375 8.6875 C-6.45425781 7.429375 -6.47101562 6.17125 -6.48828125 4.875 C-6.36839844 3.823125 -6.24851562 2.77125 -6.125 1.6875 C-3.125 -0.3125 -3.125 -0.3125 0 0 Z M-3.125 1.6875 C-5.19020632 4.78530948 -5.41977024 5.6415481 -5.4375 9.1875 C-5.45425781 9.9609375 -5.47101562 10.734375 -5.48828125 11.53125 C-5.0405121 14.18897654 -4.26145097 15.08904152 -2.125 16.6875 C0.01303054 16.61143164 0.01303054 16.61143164 1.875 15.6875 C3.04483345 13.3478331 3.0411241 11.85358473 3.0625 9.25 C3.08376953 8.07630859 3.08376953 8.07630859 3.10546875 6.87890625 C3.01586064 4.39544013 3.01586064 4.39544013 0.875 1.6875 C-0.445 1.6875 -1.765 1.6875 -3.125 1.6875 Z " fill="#006FCC" transform="translate(33.125,21.3125)"/>
<path d="M0 0 C4.59817352 1.45205479 4.59817352 1.45205479 6.375 3.875 C7.09806909 6.3334349 6.85178626 7.61499846 6 10 C3.625 9.6875 3.625 9.6875 1 9 C-1 6 -1 6 -0.625 2.8125 C-0.41875 1.884375 -0.2125 0.95625 0 0 Z " fill="#006DCF" transform="translate(37,16)"/>
<path d="M0 0 C0.75 2.75 0.75 2.75 1 6 C-0.6875 8.4375 -0.6875 8.4375 -3 10 C-5.25 9.75 -5.25 9.75 -7 9 C-6.51058824 3.49411765 -6.51058824 3.49411765 -4.0625 1.125 C-2 0 -2 0 0 0 Z " fill="#0070CB" transform="translate(27,16)"/>
</svg>
